<?xml version="1.0" encoding="utf-8"?>
<!-- Generator: Adobe Illustrator 16.0.0, SVG Export Plug-In . SVG Version: 6.00 Build 0)  -->
<!DOCTYPE svg PUBLIC "-//W3C//DTD SVG 1.1//EN" "http://www.w3.org/Graphics/SVG/1.1/DTD/svg11.dtd">
<svg version="1.1" id="Layer_1" xmlns="http://www.w3.org/2000/svg" xmlns:xlink="http://www.w3.org/1999/xlink" x="0px" y="0px"
	 width="878.777px" height="310.139px" viewBox="0 0 878.777 310.139" enable-background="new 0 0 878.777 310.139"
	 xml:space="preserve">
<g opacity="0.05">
	<polygon points="0,311 21,311 21,47.231 110.15,305.852 197,44.927 197,311 218,311 218,0 199.58,0 111.021,255.74 23.328,0 0,0 	
		"/>
	<polygon points="31,311 52,311 52,47.231 141.15,305.852 228,44.927 228,311 249,311 249,0 230.684,0 142.125,255.74 54.432,0 
		31,0 	"/>
</g>
<g opacity="0.05">
	<path d="M306.863,134.372h6.945l30.766,73.327h0.221l30.434-73.327h6.947v78.73h-4.852v-72.776h-0.221l-29.993,72.776h-4.853
		l-30.323-72.776h-0.221v72.776h-4.852L306.863,134.372L306.863,134.372z"/>
	<path d="M420.548,134.372h5.292l31.096,78.73h-5.182l-9.925-25.251h-37.712l-10.033,25.251H388.9L420.548,134.372z
		 M440.285,183.661l-16.871-44.548h-0.221l-17.531,44.548H440.285z"/>
	<path d="M463.66,134.372h6.064l49.73,72.226h0.22v-72.226h4.854v78.73h-5.733l-50.062-72.776h-0.221v72.776h-4.853V134.372z"/>
	<path d="M562.9,134.372h5.293l31.096,78.73h-5.184l-9.925-25.251H546.47l-10.034,25.251h-5.183L562.9,134.372z M582.639,183.661
		l-16.871-44.548h-0.221l-17.533,44.548H582.639z"/>
</g>
<g opacity="0.05">
	<path d="M305.766,228.299h31.425c2.067,0,4.358,0.242,6.874,0.724c2.515,0.483,4.859,1.465,7.029,2.946
		c2.171,1.482,3.98,3.584,5.427,6.306c1.447,2.723,2.171,6.289,2.171,10.699c0,6.479-2,11.474-5.996,14.988
		c-3.998,3.515-9.717,5.272-17.16,5.272h-25.223v32.872h-4.549V228.299z M310.314,265.305h25.946c3.308,0,6.115-0.499,8.425-1.499
		c2.308-0.998,4.151-2.29,5.53-3.876c1.378-1.585,2.377-3.342,2.998-5.271c0.621-1.929,0.931-3.859,0.931-5.789
		c0-1.378-0.207-3.015-0.62-4.91c-0.414-1.895-1.241-3.722-2.481-5.479c-1.241-1.758-2.982-3.239-5.221-4.445
		c-2.24-1.205-5.22-1.81-8.941-1.81h-26.566V265.305z"/>
	<path d="M366.857,228.299h30.805c3.238,0,6.27,0.328,9.097,0.982c2.825,0.655,5.306,1.723,7.443,3.204
		c2.135,1.482,3.807,3.429,5.013,5.841c1.205,2.413,1.809,5.41,1.809,8.993c0,4.962-1.396,9.148-4.187,12.56
		s-6.667,5.53-11.629,6.357v0.207c3.376,0.413,6.047,1.31,8.012,2.688c1.964,1.379,3.427,3.067,4.393,5.065
		c0.964,1.999,1.584,4.204,1.861,6.615c0.274,2.413,0.414,4.825,0.414,7.236c0,1.447,0,2.86,0,4.238
		c0,1.379,0.068,2.672,0.207,3.876c0.137,1.207,0.362,2.326,0.672,3.36c0.31,1.033,0.74,1.896,1.292,2.584h-5.065
		c-0.966-1.722-1.499-3.737-1.603-6.047c-0.103-2.309-0.155-4.704-0.155-7.185c0-2.481-0.104-4.944-0.31-7.392
		c-0.207-2.445-0.863-4.634-1.964-6.563c-1.103-1.929-2.843-3.479-5.22-4.652c-2.377-1.171-5.737-1.757-10.079-1.757h-26.256v33.596
		h-4.549V228.299z M397.663,264.582c2.688,0,5.185-0.326,7.494-0.981c2.308-0.654,4.29-1.67,5.944-3.05
		c1.654-1.378,2.962-3.135,3.928-5.271c0.964-2.136,1.447-4.686,1.447-7.649c0-2.756-0.517-5.117-1.55-7.081
		c-1.034-1.965-2.413-3.566-4.135-4.808c-1.723-1.24-3.721-2.135-5.995-2.688c-2.274-0.551-4.652-0.827-7.133-0.827h-26.256v32.355
		H397.663z"/>
	<path d="M498.863,265.202c0,5.376-0.795,10.425-2.379,15.145c-1.586,4.721-3.877,8.822-6.873,12.301
		c-2.998,3.481-6.668,6.221-11.01,8.219s-9.27,2.997-14.783,2.997s-10.457-0.999-14.832-2.997
		c-4.379-1.998-8.064-4.737-11.062-8.219c-2.998-3.479-5.29-7.58-6.875-12.301c-1.586-4.72-2.377-9.769-2.377-15.145
		c0-5.375,0.792-10.422,2.377-15.144c1.584-4.72,3.876-8.82,6.875-12.301c2.997-3.479,6.683-6.219,11.062-8.219
		c4.375-1.998,9.318-2.997,14.832-2.997s10.441,0.999,14.783,2.997c4.342,2,8.012,4.739,11.01,8.219
		c2.996,3.48,5.287,7.581,6.873,12.301C498.068,254.78,498.863,259.827,498.863,265.202z M433.221,265.202
		c0,4.756,0.688,9.236,2.067,13.438c1.378,4.205,3.376,7.874,5.996,11.01c2.618,3.137,5.823,5.634,9.614,7.494
		c3.789,1.86,8.096,2.791,12.92,2.791s9.113-0.931,12.871-2.791c3.756-1.86,6.941-4.357,9.562-7.494
		c2.617-3.136,4.615-6.805,5.994-11.01c1.379-4.202,2.068-8.683,2.068-13.438c0-4.755-0.689-9.233-2.068-13.438
		c-1.379-4.203-3.377-7.873-5.994-11.01c-2.621-3.135-5.807-5.634-9.562-7.494c-3.758-1.86-8.047-2.791-12.871-2.791
		s-9.131,0.931-12.92,2.791c-3.791,1.86-6.996,4.359-9.614,7.494c-2.62,3.137-4.618,6.807-5.996,11.01
		C433.909,255.969,433.221,260.447,433.221,265.202z"/>
	<path d="M508.579,228.299h31.425c2.067,0,4.357,0.242,6.874,0.724c2.515,0.483,4.858,1.465,7.029,2.946
		c2.171,1.482,3.98,3.584,5.428,6.306c1.446,2.723,2.17,6.289,2.17,10.699c0,6.479-1.999,11.474-5.995,14.988
		c-3.998,3.515-9.717,5.272-17.16,5.272h-25.223v32.872h-4.548V228.299z M513.127,265.305h25.946c3.309,0,6.115-0.499,8.425-1.499
		c2.309-0.998,4.151-2.29,5.53-3.876c1.378-1.585,2.378-3.342,2.998-5.271c0.62-1.929,0.931-3.859,0.931-5.789
		c0-1.378-0.207-3.015-0.62-4.91c-0.414-1.895-1.24-3.722-2.481-5.479c-1.24-1.758-2.981-3.239-5.22-4.445
		c-2.24-1.205-5.221-1.81-8.942-1.81h-26.566V265.305z"/>
	<path d="M569.671,228.299h49.618v3.928h-45.07v29.564h42.383v3.929h-42.383v32.459h45.587v3.928h-50.135V228.299z"/>
	<path d="M627.56,228.299h30.805c3.238,0,6.271,0.328,9.097,0.982c2.825,0.655,5.306,1.723,7.442,3.204
		c2.136,1.482,3.808,3.429,5.014,5.841c1.205,2.413,1.81,5.41,1.81,8.993c0,4.962-1.396,9.148-4.187,12.56s-6.668,5.53-11.63,6.357
		v0.207c3.376,0.413,6.048,1.31,8.012,2.688c1.964,1.379,3.427,3.067,4.394,5.065c0.964,1.999,1.584,4.204,1.86,6.615
		c0.274,2.413,0.413,4.825,0.413,7.236c0,1.447,0,2.86,0,4.238c0,1.379,0.068,2.672,0.207,3.876c0.138,1.207,0.361,2.326,0.672,3.36
		c0.311,1.033,0.74,1.896,1.292,2.584h-5.065c-0.966-1.722-1.498-3.737-1.602-6.047c-0.104-2.309-0.155-4.704-0.155-7.185
		c0-2.481-0.104-4.944-0.311-7.392c-0.206-2.445-0.862-4.634-1.964-6.563c-1.104-1.929-2.843-3.479-5.22-4.652
		c-2.378-1.171-5.737-1.757-10.079-1.757h-26.257v33.596h-4.548V228.299z M658.364,264.582c2.688,0,5.185-0.326,7.494-0.981
		c2.309-0.654,4.29-1.67,5.944-3.05c1.653-1.378,2.962-3.135,3.928-5.271c0.965-2.136,1.447-4.686,1.447-7.649
		c0-2.756-0.517-5.117-1.551-7.081c-1.033-1.965-2.413-3.566-4.135-4.808c-1.724-1.24-3.721-2.135-5.995-2.688
		c-2.274-0.551-4.652-0.827-7.133-0.827h-26.257v32.355H658.364z"/>
	<path d="M684.62,232.226v-3.928h56.545v3.928h-26.05v69.88h-4.549v-69.88H684.62z"/>
	<path d="M746.229,228.299h4.548v73.808h-4.548V228.299z"/>
	<path d="M763.803,228.299h49.618v3.928h-45.07v29.564h42.383v3.929h-42.383v32.459h45.587v3.928h-50.135V228.299z"/>
	<path d="M869.861,249.386c-0.139-3.169-0.811-5.926-2.016-8.27c-1.206-2.342-2.843-4.307-4.91-5.893
		c-2.067-1.584-4.532-2.773-7.391-3.566c-2.861-0.791-5.979-1.188-9.355-1.188c-2.067,0-4.29,0.242-6.668,0.724
		c-2.377,0.482-4.584,1.327-6.615,2.532c-2.034,1.207-3.705,2.827-5.014,4.858c-1.31,2.034-1.964,4.566-1.964,7.599
		c0,2.964,0.724,5.375,2.171,7.235c1.447,1.861,3.342,3.359,5.686,4.497c2.342,1.137,5.029,2.051,8.062,2.739
		c3.032,0.689,6.099,1.344,9.2,1.964c3.169,0.62,6.254,1.361,9.252,2.223c2.998,0.862,5.686,2.033,8.062,3.515
		c2.378,1.482,4.29,3.411,5.737,5.789c1.447,2.377,2.171,5.359,2.171,8.941c0,3.86-0.827,7.099-2.48,9.717
		c-1.654,2.62-3.739,4.755-6.254,6.409c-2.517,1.654-5.308,2.843-8.374,3.566s-6.013,1.085-8.838,1.085
		c-4.342,0-8.408-0.465-12.198-1.396c-3.79-0.93-7.099-2.445-9.924-4.548c-2.826-2.102-5.049-4.807-6.667-8.114
		c-1.62-3.309-2.396-7.34-2.326-12.095h4.549c-0.207,4.066,0.378,7.494,1.757,10.285c1.378,2.791,3.29,5.083,5.737,6.874
		c2.445,1.793,5.324,3.085,8.632,3.877c3.308,0.793,6.787,1.188,10.44,1.188c2.205,0,4.564-0.274,7.081-0.827
		c2.515-0.551,4.823-1.48,6.926-2.791c2.102-1.308,3.858-3.031,5.272-5.168c1.411-2.136,2.119-4.823,2.119-8.063
		c0-3.102-0.724-5.634-2.171-7.598s-3.36-3.549-5.737-4.755c-2.378-1.205-5.065-2.171-8.063-2.895
		c-2.997-0.724-6.083-1.396-9.252-2.016c-3.101-0.621-6.168-1.344-9.199-2.171c-3.034-0.827-5.722-1.946-8.063-3.36
		c-2.344-1.411-4.238-3.238-5.686-5.479c-1.447-2.238-2.171-5.116-2.171-8.631s0.74-6.529,2.223-9.046
		c1.481-2.515,3.411-4.548,5.789-6.099c2.377-1.551,5.047-2.688,8.011-3.411c2.963-0.724,5.893-1.085,8.787-1.085
		c3.858,0,7.459,0.431,10.803,1.292c3.342,0.862,6.27,2.206,8.786,4.031c2.515,1.827,4.53,4.187,6.047,7.081
		c1.516,2.895,2.378,6.375,2.585,10.44H869.861z"/>
</g>
</svg>
